<svg width="587" height="126" viewBox="0 0 587 126" fill="none" xmlns="http://www.w3.org/2000/svg">
<path d="M28.5 0L85.9999 16.8809L118 43.8057L69.5491 32.5114L44.6166 75.2684L0 43.8057L28.5 0Z" fill="#173142"/>
<path d="M72.5 41.3857L126 52.8212L108 108.365H72.5L102.5 79.504L46.4132 115L8.0498 88.7613V60.9894L46.4132 86.7645L92.2818 62.5624L52.963 73.05L72.5 41.3857Z" fill="#38CC90"/>
<path d="M193.125 88.4375C188.25 94.6875 181.688 98.0625 173.75 98.0625C156.062 98.0625 144.125 81.8125 144.125 65.125C144.125 49 156.75 32 173.875 32C181.688 32 188.25 35.125 193.125 41.25V33H211.188V89.75C211.188 111.938 200.312 126 177.312 126C163.062 126 152.938 120.562 145.438 108.375L161 99.5C163.938 106.562 169.812 109.75 177.312 109.75C189.062 109.75 193.125 100.062 193.125 89.75V88.4375ZM162.125 65.0625C162.125 74.0625 168.875 81.4375 178 81.4375C187.125 81.4375 193.938 74.0625 193.938 65.0625C193.938 56.125 187.125 48.5625 178 48.5625C168.875 48.5625 162.125 56.125 162.125 65.0625ZM241.938 33V46.9375C243.312 37.75 250 33 259 33H264.375V49.5C252.562 49.5 241.938 47.3125 241.938 62.8125V97H223.875V33H241.938ZM299.875 98.25C281.125 98.25 266 84.0625 266 65.125C266 46.5 281.375 31.75 299.875 31.75C318.438 31.75 333.75 46.4375 333.75 65.125C333.75 83.9375 318.5 98.25 299.875 98.25ZM284 65.0625C284 74.0625 290.75 81.4375 299.875 81.4375C309 81.4375 315.75 74.0625 315.75 65.0625C315.75 56.125 309 48.5625 299.875 48.5625C290.75 48.5625 284 56.125 284 65.0625ZM373.375 33H388.188L399.25 68.0625L408.938 33H427.938L407.375 97H392L380.875 60.1875L369.688 97H354.312L333.75 33H352.75L362.5 68L373.375 33ZM452.875 33V42.875C455.562 35.8125 463.125 32.125 470.375 32.125C486.562 32.125 491.938 47.625 491.938 61.375V97H473.938V61.5C473.938 54.8125 470.875 48.5625 463.375 48.5625C455.812 48.5625 452.875 54.75 452.875 61.5V97H434.812V33H452.875ZM504.375 97V33H522.5V97H504.375ZM504.375 26.625V7.375H522.5V26.625H504.375ZM575.312 53.4375C570.688 50.75 565.125 48.5625 559.75 48.5625C557.312 48.5625 552.062 49.0625 552.062 52.5625C552.062 59.75 582.188 57.9375 582.188 78.25C582.188 92.375 568.625 98.25 556.312 98.25C548.625 98.25 540.125 95.0625 533.312 91.75L540.062 76.0625C544.188 78.125 551.562 81.5 556.25 81.5C558.625 81.5 564.125 80.75 564.125 77.375C564.125 70.0625 533.938 71.9375 533.938 51.875C533.938 37.6875 547.25 31.75 559.688 31.75C566.812 31.75 574.938 34.625 581.375 37.5L575.312 53.4375Z" fill="#173142"/>
</svg>
